#!OML:ASF F:\VICON\USERDATA\INSTALL\Justin_Nancy\Justin_Nancy.ASF
:FULLY-SPECIFIED
:DEGREES
49
root -9.12841 17.526 -28.0068 -0.85513 -4.19403 -2.70953
lowerback 6.86214 0.0961871 0.599219
upperback -0.565416 0.354836 4.02309
thorax -4.46477 0.210451 3.81121
lowerneck -8.66218 -1.69367 -11.7286
upperneck 18.6608 -1.35977 4.8571
head 7.27205 -1.04652 3.41973
rclavicle 1.69215e-014 -1.35174e-014
rhumerus -29.4391 -1.41526 -79.7576
rradius 33.958
rwrist 4.35992
rhand -13.4401 9.58769
rfingers 7.12502
rthumb 12.669 -20.0081
lclavicle 1.69215e-014 -1.35174e-014
lhumerus -36.625 13.919 86.3034
lradius 26.0259
lwrist -10.063
lhand -18.5458 21.7751
lfingers 7.12502
lthumb 7.74356 51.6133
rfemur -0.571706 2.15921 29.3821
rtibia 19.9975
rfoot -13.5056 -5.96821
rtoes 4.17839
lfemur -27.0242 1.13996 -15.3642
ltibia 51.1556
lfoot -8.02174 6.04002
ltoes -7.95141
50
root -9.12756 17.5155 -27.8742 -0.746255 -4.185 -2.76601
lowerback 7.07004 -0.252834 0.152725
upperback -0.860453 -0.112859 4.45099
thorax -4.8615 0.0018957 4.5749
lowerneck -8.35713 -1.12432 -12.1523
upperneck 18.6303 -0.529511 4.75512
head 7.1384 -0.689015 3.52685
rclavicle -1.79652e-014 -2.38542e-014
rhumerus -29.498 0.712589 -79.8694
rradius 34.3963
rwrist 3.89463
rhand -13.7746 9.60381
rfingers 7.12502
rthumb 12.3464 -20.0116
lclavicle -1.79652e-014 -2.38542e-014
lhumerus -37.5041 15.5798 86.0771
lradius 25.8428
lwrist -10.4581
lhand -18.3453 21.5417
lfingers 7.12502
lthumb 7.93704 51.3727
rfemur -0.0848884 2.16248 29.4443
rtibia 19.8322
rfoot -13.7975 -6.09985
rtoes 4.75969
lfemur -27.4448 0.808245 -15.2803
ltibia 49.1346
lfoot -8.07238 6.69031
ltoes -7.0105
51
root -9.12089 17.5088 -27.7333 -0.664396 -4.07471 -2.85578
lowerback 7.16759 0.349124 1.12189
upperback -0.53028 0.731504 3.71047
thorax -4.61236 0.381035 3.14698
lowerneck -9.93049 -1.8217 -10.952
upperneck 18.8063 -1.52555 4.92137
head 7.5496 -1.05534 3.29889
rclavicle 5.90142e-015 2.38542e-014
rhumerus -28.9558 -1.6615 -79.9765
rradius 34.8628
rwrist 3.96231
rhand -14.1692 9.39397
rfingers 7.12502
rthumb 11.9659 -20.244
lclavicle 5.90142e-015 2.38542e-014
lhumerus -36.0703 13.0543 86.5128
lradius 25.1652
lwrist -10.126
lhand -18.3222 21.7526
lfingers 7.12502
lthumb 7.95936 51.5828
rfemur 0.397721 2.02258 29.5102
rtibia 19.82
rfoot -14.2465 -6.19063
rtoes 4.6065
lfemur -27.7206 0.301044 -15.1668
ltibia 47.0127
lfoot -8.6729 7.30463
ltoes -5.00744
52
root -9.12415 17.4912 -27.6113 -0.52236 -3.84968 -2.92464
lowerback 7.38961 1.27477 2.20296
upperback 0.232587 1.98972 2.6409
thorax -3.92421 0.969299 1.28501
lowerneck -13.2605 -3.18956 -9.16899
upperneck 19.5202 -3.45125 5.01639
head 8.5171 -1.80303 2.82509
rclavicle 1.0958e-014 -3.97569e-016
rhumerus -27.373 -5.71911 -80.1552
rradius 35.0968
rwrist 4.21596
rhand -14.2923 9.44969
rfingers 7.12502
rthumb 11.8472 -20.1952
lclavicle 1.0958e-014 -3.97569e-016
lhumerus -33.2955 9.41977 87.0295
lradius 24.2799
lwrist -10.12
lhand -17.9998 22.0767
lfingers 7.12502
lthumb 8.27055 51.8948
rfemur 0.725593 2.00078 29.6585
rtibia 19.8472
rfoot -14.6422 -6.64119
rtoes 3.7841
lfemur -28.0759 -0.0876374 -15.0142
ltibia 44.7918
lfoot -9.18645 7.55139
ltoes -3.34926
53
root -9.13648 17.4629 -27.5045 -0.260152 -3.33377 -3.00078
lowerback 7.43084 1.61543 2.56489
upperback 0.92878 2.42935 2.13237
thorax -3.19076 1.18642 0.519415
lowerneck -15.954 -3.96377 -8.1397
upperneck 19.5995 -4.54933 5.08775
head 9.09538 -2.19643 2.51721
rclavicle 1.18525e-014 1.47101e-014
rhumerus -25.4519 -7.91046 -80.4635
rradius 35.1858
rwrist 4.4729
rhand -14.0222 9.89798
rfingers 7.12502
rthumb 12.1077 -19.7317
lclavicle 1.18525e-014 1.47101e-014
lhumerus -31.2244 7.89578 87.1825
lradius 23.7263
lwrist -10.6277
lhand -17.6406 21.5924
lfingers 7.12502
lthumb 8.61721 51.3965
rfemur 0.88384 1.90017 29.8802
rtibia 19.8123
rfoot -14.8836 -7.23421
rtoes 3.52779
lfemur -28.6322 -0.48808 -14.8341
ltibia 42.475
lfoot -9.10513 7.45406
ltoes -3.66976
54
root -9.13716 17.4487 -27.3698 -0.0280511 -3.10982 -3.05353
lowerback 7.29038 1.34358 2.39452
upperback 0.573003 2.06983 2.36903
thorax -3.49867 1.00771 0.893891
lowerneck -14.5968 -3.72752 -8.78208
upperneck 19.0764 -4.2201 5.34401
head 8.66611 -2.07958 2.76397
rclavicle -1.07095e-014 1.55052e-014
rhumerus -25.7636 -6.59715 -80.4109
rradius 35.5895
rwrist 4.08075
rhand -13.8135 9.99246
rfingers 7.12502
rthumb 12.309 -19.6252
lclavicle -1.07095e-014 1.55052e-014
lhumerus -32.0679 9.03725 87.0333
lradius 23.454
lwrist -11.2273
lhand -18.2221 21.8136
lfingers 7.12502
lthumb 8.05602 51.64
rfemur 1.19659 1.82095 29.9842
rtibia 19.6803
rfoot -15.0696 -7.54042
rtoes 3.21502
lfemur -28.9983 -0.931556 -14.7191
ltibia 40.0936
lfoot -8.74603 7.51969
ltoes -5.26913
55
root -9.13264 17.4511 -27.2118 0.113479 -3.47052 -3.03305
lowerback 7.31195 -0.156649 0.442716
upperback -1.21654 0.0536215 4.24951
thorax -5.38382 0.0820997 4.18815
lowerneck -8.36971 -1.55031 -11.7928
upperneck 18.0434 -1.21762 5.03838
head 7.00633 -0.954315 3.49356
rclavicle -1.2188e-014 3.97569e-015
rhumerus -28.4059 1.18634 -80.1559
rradius 36.1233
rwrist 2.81344
rhand -13.7789 9.54451
rfingers 7.12502
rthumb 12.3423 -20.0712
lclavicle -1.2188e-014 3.97569e-015
lhumerus -37.3918 15.5302 86.05
lradius 24.0021
lwrist -11.875
lhand -18.6546 22.4796
lfingers 7.12502
lthumb 7.63856 52.3216
rfemur 1.74289 1.96716 29.9429
rtibia 19.3931
rfoot -15.0657 -7.65569
rtoes 2.62465
lfemur -28.9849 -1.21981 -14.6374
ltibia 37.6354
lfoot -8.61809 7.78352
ltoes -6.4447
